PathFileType	4	(X/Y/Z)	C:\Users\WrightLab\Desktop\Jo\P5V45.trc
DataRate	CameraRate	NumFrames	NumMarkers	Units	OrigDataRate	OrigDataStartFrame	OrigNumFrames
100.00	100.00	       19	19	mm	100.00	736	       840
Frame#	Time	Headset_Front			Headset_Back			Headset_Left			Headset_Right			Left_Shoulder			Right_Shoulder			Sternum			C7			Left Elbow			Right Elbow			Left Wrist			Right Wrist			Left ASIS			Right ASIS			S2			Left Knee			Right Knee			Left Ankle			Right Ankle			
		X1	Y1	Z1	X2	Y2	Z2	X3	Y3	Z3	X4	Y4	Z4	X5	Y5	Z5	X6	Y6	Z6	X7	Y7	Z7	X8	Y8	Z8	X9	Y9	Z9	X10	Y10	Z10	X11	Y11	Z11	X12	Y12	Z12	X13	Y13	Z13	X14	Y14	Z14	X15	Y15	Z15	X16	Y16	Z16	X17	Y17	Z17	X18	Y18	Z18	X19	Y19	Z19	

736	7.350	-38.24279	1748.54175	1247.96655	156.72992	1555.60693	1225.26697							-42.11052	1524.91272	1378.74695	113.49495	1501.50378	997.51013	-24.66985	1352.65894	1150.42102				-71.95632	1225.16992	1461.41455	217.60246	1226.85266	942.72778	-170.26779	1048.36182	1337.46204	27.36790	1085.55115	929.82794	-71.60229	952.38409	1279.23193	59.50075	981.94055	1026.04993	232.55885	1006.66168	1298.24683	34.81843	529.60083	1353.86694	71.38795	534.87714	1060.61780	236.37332	133.71898	1391.36597	138.01785	133.62563	1154.24707	
737	7.360	-40.26873	1749.02722	1245.13318	154.14716	1556.36536	1224.82825							-45.60562	1525.46399	1376.67932	113.39375	1501.17151	996.41943	-26.61061	1353.05432	1147.94763				-76.52059	1225.36353	1457.98633	217.18655	1226.47314	942.71063	-172.54062	1048.06311	1332.06372	27.01088	1085.26550	928.98010	-74.89987	953.26062	1275.90735	58.39258	981.97882	1024.49109	228.55630	1006.33563	1299.25793	32.45472	529.32672	1352.44434	71.96719	534.87250	1060.18982	236.07098	134.09659	1391.22888	138.09468	133.46300	1154.22705	
738	7.370	-43.03115	1749.53760	1242.39453	152.17914	1556.26282	1224.53564							-49.38979	1526.07153	1374.99329	112.89566	1500.97168	994.82648	-28.41487	1353.47241	1145.58228				-80.13459	1224.95313	1453.25366	216.62694	1226.18750	942.82208	-174.17664	1047.70618	1326.68591	26.93347	1084.67041	927.81891	-77.12842	953.63165	1272.71130	55.04849	982.39581	1024.37732	225.68085	1006.86652	1299.85193	29.54675	529.34467	1350.69934	72.18482	534.87872	1058.47864	235.31784	135.23526	1391.07727	137.57135	132.88690	1153.83447	
739	7.380	-44.13346	1750.02856	1239.40796	149.96033	1556.97827	1223.94031							-53.46040	1526.89526	1372.36328	112.40967	1501.47913	993.41840	-30.44422	1353.91296	1142.98877				-84.00005	1225.49658	1448.91235	215.71104	1226.44104	942.84198	-175.96500	1047.67566	1321.46375	26.97969	1084.38574	926.99713	-79.29209	953.91278	1269.72607	53.30832	982.67065	1023.46033	223.23270	1006.83185	1299.76648	25.92939	529.59070	1348.84290	71.86940	534.59143	1057.92993	234.54019	136.27631	1390.61328	137.82008	132.29739	1153.93872	
740	7.390	-47.45059	1750.82422	1236.73438										-57.08144	1527.57593	1369.84338	111.95515	1501.96692	992.04816	-32.29055	1354.37524	1140.61572				-88.13675	1225.57617	1445.72327	215.37297	1226.35999	942.79150	-177.99606	1047.69751	1316.30371	26.93865	1084.05579	925.53595	-80.85192	954.41791	1266.51819	52.21060	982.93787	1022.50378	219.74159	1007.06329	1300.24500	22.17756	529.53131	1346.91345	72.04513	534.45258	1056.82507	233.62688	137.76767	1390.62280	138.09717	131.72427	1154.03772	
741	7.400	-48.95014	1750.91528	1234.02588	145.69080	1556.97485	1222.08606							-59.60928	1528.79590	1371.02869	111.55057	1502.02539	990.88452	-34.23873	1354.76160	1138.11426				-91.36188	1225.43860	1440.87817	214.65533	1226.37988	942.76355	-179.44370	1047.39209	1311.28259	26.64918	1084.05505	924.76984	-83.43770	955.37048	1263.85522	51.00289	983.56592	1021.95081	216.75459	1007.06104	1300.95862	18.42568	529.86218	1344.67786	72.13266	533.95807	1056.41589	232.18475	139.61629	1390.21033	138.09766	131.70000	1154.03235	
742	7.410	-50.10950	1750.96765	1231.25464	142.36174	1557.92212	1223.23291							-63.33855	1529.65637	1368.30627	110.86499	1502.08325	989.43781	-36.01239	1355.07190	1135.78320				-94.85590	1225.50317	1436.29382	214.45209	1226.36353	942.81549	-180.88249	1047.38611	1306.12878	26.00533	1083.82349	923.63824	-85.61146	956.25403	1260.98840	50.05045	983.73730	1021.16724	213.91922	1007.09918	1300.89526	14.10698	530.31604	1342.66650	72.43872	533.56238	1056.01514	231.99419	141.47612	1390.54468	138.33461	131.74998	1154.25000	
743	7.420	-53.41208	1751.74329	1228.70313	140.62613	1557.31616	1220.20532							-66.96381	1530.12256	1365.80054	110.32871	1501.94897	988.48077	-37.89904	1355.35291	1133.54114				-98.90060	1225.61853	1433.49536	214.12161	1226.32043	942.78149	-182.57927	1047.43408	1301.21179	25.87788	1083.48425	922.66071	-86.44453	955.83777	1258.27600	48.38809	984.31616	1020.63580	212.14552	1007.98297	1301.16516	9.42625	530.91888	1340.78040	73.03430	532.88904	1054.71216	228.72833	144.57362	1390.20984	138.36584	131.58301	1154.42444	
744	7.430	-54.81664	1751.95605	1226.03198	138.05168	1558.04761	1221.19897							-70.17333	1530.39514	1363.18823	109.69113	1502.00061	987.49658	-39.63008	1355.54041	1131.34265				-102.99660	1226.09021	1430.85645	214.08026	1225.95728	942.20819	-184.22046	1047.54871	1296.36975	25.54064	1083.27832	921.45203	-89.78844	957.00366	1255.94507	47.73014	984.17670	1019.74219	208.74017	1008.25238	1300.71448	5.25475	531.10211	1338.83203	73.50007	531.97876	1054.37830	227.26741	147.39682	1390.28772	138.66917	131.31462	1154.59399	
745	7.440	-58.12125	1752.74634	1223.53052	135.65819	1558.41370	1218.57495							-73.30202	1530.69214	1360.52771	108.70450	1501.93518	985.82782	-41.15745	1355.62744	1129.48767				-106.44831	1225.94568	1426.79663	213.96130	1225.80872	942.00885	-185.60353	1047.70850	1291.44165	25.52665	1083.18933	920.59399	-91.42816	957.36578	1253.23291	47.55021	983.68933	1018.28693	206.72318	1008.36139	1300.28564	0.11755	531.66425	1337.13831	74.50761	531.02557	1053.42834	224.45445	151.10016	1389.97095	138.68053	131.25963	1154.57849	
746	7.450	-59.63614	1752.75696	1220.95752	133.83598	1558.92993	1218.54736							-76.90257	1531.15540	1358.16211	108.21276	1502.19604	985.08649	-42.95005	1355.68750	1127.73950				-110.23179	1225.82153	1423.52441	213.35434	1225.66736	942.03503	-186.83472	1047.89539	1286.54846	24.68781	1083.32434	919.66223	-92.79975	957.07452	1250.43213	46.69232	983.69604	1017.57275	204.64984	1008.34882	1300.09033	-5.27334	532.20911	1335.56567	76.21870	530.96277	1052.48022	221.02107	154.86807	1389.93115	138.65137	131.33522	1154.40430	
747	7.460	-61.67399	1752.73413	1218.55530	131.54755	1559.14648	1215.59973							-79.61720	1531.43372	1355.53186	106.97755	1501.65674	983.32678	-44.34343	1355.65015	1125.96570				-113.69230	1227.94409	1428.43250	212.70816	1225.66370	942.21313	-188.32294	1048.05273	1282.05725	24.25521	1083.72351	918.31647	-95.27110	957.67560	1247.75781	45.54214	983.95282	1016.80438	202.24844	1008.92322	1299.53027	-10.71057	532.53046	1334.04675	77.80939	530.52368	1052.10803	217.82816	159.02101	1389.92676	138.67319	130.86479	1154.19031	
748	7.470	-64.51602	1752.92920	1216.19934	129.48833	1559.50549	1215.85632							-82.80419	1531.71045	1353.08496	106.26083	1501.46692	982.38678	-46.04590	1355.51904	1124.36035				-117.75385	1228.30322	1425.05969	211.87413	1225.66309	941.74780	-189.59875	1048.54382	1277.46143	23.63524	1083.70020	917.46075	-96.96938	958.00818	1244.99719	45.49129	983.67926	1015.83789	200.12016	1009.50842	1299.35876	-16.70951	532.59833	1332.62500	80.58032	529.21606	1051.14941	213.74190	163.98834	1390.15955	138.46695	130.72838	1154.14746	
749	7.480	-65.83415	1752.50256	1213.84119	127.28696	1559.06030	1214.80652							-85.98014	1531.89636	1350.77686	105.48244	1501.23547	981.44366	-47.52877	1355.27417	1122.66724				-121.43302	1228.57129	1421.61438	211.45683	1225.49915	941.54132	-190.98526	1048.95605	1273.00293	23.46220	1083.55908	916.21637	-98.95461	958.67438	1242.30420	46.40532	982.41748	1014.86523	197.83372	1010.07874	1299.01611	-22.94543	532.33069	1331.20740	82.84061	528.78888	1050.38574	208.46671	169.07805	1389.87024	138.59464	130.55667	1154.63159	
750	7.490	-68.89138	1752.60632	1211.62708	125.11569	1559.48425	1213.64331							-89.37471	1532.12170	1348.60852	104.76904	1501.17468	980.70526	-49.09572	1354.94446	1120.92639				-124.46248	1228.10864	1418.27405	210.85332	1225.28772	941.29150	-192.23161	1049.08569	1268.63477	22.60168	1083.63733	915.23328	-100.79726	959.22205	1239.76685	46.19831	982.39215	1013.66583	196.01233	1010.31030	1298.92834	-29.35725	531.98163	1329.55652	86.08144	528.94775	1049.13049	203.70927	173.66634	1389.99329	138.77118	130.39795	1154.85205	
751	7.500	-70.57413	1752.26611	1209.36584	122.98206	1559.51941	1212.21472							-92.02806	1532.20093	1346.26294	103.89550	1500.85376	979.98602	-50.47607	1354.66492	1119.33179				-128.53284	1228.26208	1415.52344	210.29361	1224.84314	940.99542	-193.45120	1049.44385	1264.46021	22.29106	1083.27686	914.15741	-105.20295	957.73975	1238.81506	45.46825	982.59369	1013.11298	193.34091	1010.49841	1298.79150	-36.43140	531.47589	1327.66333	89.48293	528.09131	1047.09314	197.72815	178.86887	1389.62830	138.75862	130.36832	1154.84949	
752	7.510	-73.17350	1752.11499	1207.20984	120.47694	1559.37378	1212.15857							-95.57633	1532.32666	1344.23340	102.96259	1500.30981	978.82568	-52.26797	1354.38611	1117.72400				-131.83807	1228.65833	1412.69470	209.84651	1224.12634	940.67621	-194.72911	1049.96899	1260.24683	21.48870	1083.60095	913.56793	-106.87357	957.98163	1238.00513	45.18572	982.43597	1011.76892	191.26205	1010.46893	1298.85022	-43.83080	531.56689	1324.72180	92.97810	527.14850	1046.02295	192.15712	183.19588	1390.10583	138.77733	130.35983	1154.84180	
753	7.520	-75.60067	1752.03931	1205.07996	118.49419	1559.71814	1211.16589							-98.44296	1532.29980	1342.15100	102.50330	1500.03577	978.56903	-53.63404	1354.08411	1116.09167				-136.10176	1228.66980	1409.91394	209.43182	1223.85437	940.47589	-196.24529	1050.34058	1256.34631	21.13818	1083.17957	912.31000	-109.12292	957.43927	1236.04980	46.17792	981.05737	1010.69708	189.32642	1010.99762	1299.19543	-51.88375	531.83014	1321.42993	95.80332	526.95154	1045.37317	185.64195	187.92491	1390.74841	138.82788	130.22414	1154.90771	
754	7.530	-77.66129	1751.77771	1202.80859	115.92108	1559.63989	1210.55859							-101.16161	1532.23401	1340.03772	101.71818	1499.30835	977.81647	-55.30309	1353.76135	1114.58826				-139.38802	1228.52710	1407.00610	208.44220	1223.55884	940.79291	-197.77567	1050.83484	1252.48254	20.46062	1082.84143	911.59283	-110.89477	955.48242	1231.25769	47.16569	982.17859	1008.53064	186.73650	1010.55188	1298.93176	-59.81453	531.61414	1317.71472	99.91383	526.52985	1044.00171	177.19714	191.44072	1390.77124	138.79868	130.19727	1154.91089	
